<svg xmlns="http://www.w3.org/2000/svg" width="170" height="60"><path d="M49.475 51.738c-6.382 0-9.81-4.625-9.81-9.641 0-5.044 3.678-9.587 10.116-9.587 3.094 0 4.877.78 6.103 1.673l-1.754 2.924c-1.005-.722-2.314-1.336-4.434-1.336-3.954 0-5.851 2.676-5.851 6.213 0 3.568 1.701 6.551 5.602 6.551 2.035 0 3.067-.613 3.287-.725v-3.68h-3.428v-3.037h7.192v8.861c-.808.476-2.761 1.784-7.023 1.784zm17.331-.334c-.111-.334-.193-1.031-.222-1.449-.613.727-1.893 1.783-3.816 1.783-2.314 0-4.099-1.393-4.099-3.816 0-3.539 3.649-4.82 7.248-4.82h.473v-.779c0-1.172-.473-1.895-2.203-1.895-1.754 0-2.954.917-3.454 1.28l-1.617-2.257c.807-.725 2.591-1.95 5.489-1.95 3.706 0 5.463 1.42 5.463 5.016v4.877c0 1.84.196 3.15.39 4.012h-3.652zm-.416-6.017h-.473c-2.175 0-3.678.641-3.678 2.23 0 1 .807 1.418 1.644 1.418 1.338 0 2.117-.781 2.507-1.195v-2.453zm14.774 6.017v-8.748c0-1.367-.472-2.065-1.813-2.065-1.446 0-2.504 1.338-2.786 1.702v9.111h-3.707v-13.57h3.625v1.701c.724-.81 2.061-2.035 4.32-2.035 2.953 0 4.069 1.895 4.069 4.402v9.502h-3.708zM92.987 37.5c1.669 0 2.646.586 3.148.947v-7.022h3.706v16.106c0 1.756.221 3.123.391 3.873H96.58a7.545 7.545 0 01-.277-1.475c-.836 1-2.006 1.838-3.818 1.838-3.399 0-5.576-2.563-5.576-7.105-.001-4.348 2.594-7.162 6.078-7.162zm.611 11.285c1.342 0 2.232-.945 2.538-1.365v-6.131c-.474-.418-1.171-.891-2.37-.891-1.895 0-2.925 1.586-2.925 4.264 0 2.59.863 4.123 2.757 4.123zm17.234-7.691c-.223-.139-.641-.307-1.423-.307-1.642 0-2.616 1.45-2.951 2.063v8.555h-3.706v-13.57h3.706v1.839c.583-1.004 1.7-2.173 3.425-2.173 1.004 0 1.535.193 1.842.36l-.893 3.233zm5.97 10.644c-2.423 0-3.983-.723-4.822-1.281l1.257-2.59c.527.361 1.838 1.115 3.342 1.115 1.423 0 2.231-.42 2.231-1.227 0-.92-1.504-1.172-3.428-2.092-1.895-.891-3.04-1.949-3.04-4.014 0-2.534 2.008-4.15 5.072-4.15 2.313 0 3.734.724 4.348 1.086l-1.309 2.537c-.53-.336-1.591-.866-2.897-.866-1.312 0-1.868.475-1.868 1.198 0 .924 1.225 1.172 2.786 1.785 2.146.891 3.708 1.867 3.708 4.152 0 2.845-2.036 4.347-5.38 4.347z" fill="#211D1E"/><path fill="#ED3226" d="M103.945 19.789c-1.681.733-4.395 1.979-5.423 2.242-1.743.446-2.521-.981-3.841-.559-.468.15-1.639 1.344-3.113 2.142-1.48.798-2.627 1.904-.627 1.505 1.039-.207 3.236-.827 4.795-1.311 1.559-.483 9.721-3.814 11.824-4.365l-3.615.346z"/><path fill="#211D1E" d="M107.561 19.443c1.138-.244 2.487-.272 4.23-.423 1.934-.17 2.744-.449 3.299-.254.553.194.831 1.714 1.545 2.503 1.915 2.11 6.548 6.333 9.799 9.311 2.602 2.379 2.336 3.26 3.524 5.036.259.381.796.468 1.108.77.652.625.298 1.351.826 1.993.605.746 1.302.801 1.372 1.079.224.868-.587 2.39-.814 3.792-.229 1.404.494 3.574.882 2.801.394-.775 2.688-6.945 3.002-7.328.505-.601-.514 4.783-.67 7.236-.083 1.348.935 4.303 1.264 3.293.331-1.008 2.457-9.927 2.552-10.406.188-.958-.015 3.961-.162 6.602-.127 2.264 1.941 4.969 2.056 3.762.111-1.207.605-9.576.761-10.04.192-.58.549 3.987.817 5.685.265 1.697 2.019 3.256 2.021 1.668.005-1.109-.367-7.49-.316-7.822.093-.648.82 1.859 1.017 2.736.374 1.689 2.711 3.143 2.182.9-.129-.555-1.052-4.438-.735-4.521.066-.018.18.371.297.652.602 1.39 2.369 2.463 2.098 1.048-.175-.934-1.185-4.239-1.53-5.65-.997-4.063-1.954-5.144-2.734-7.593-1.436-4.492-1.551-6.908-2.368-7.701-.25-.244-1.173-.788-1.825-1.188-.066-.014-6.068-2.525-7.396-6.134-.046-.125-.365-1.017-.008-.265 1.408 2.971 5.863 4.439 6.533 4.604-.033-.45-.04-1.075-.104-1.936-.111-1.538-.676-2.295-.201-2.505.479-.209 5.776-.878 6.959-1.076 4.613-.769 6.529-.027 7.365-.118 2.115-.229 2.729-.785 4.758-1.128l.515-.074s-.923-1.088-1-1.3c-.049-.139 1.738-.564 1.738-.564-3.182-.846-3.77-1.705-5.832-1.48-1.947.212-.911 1.019-5.235 1.873-7.99 1.578-13.591-3.501-19.51-1.988-5.563 1.421-16.685 9.012-24.368 13.379-.892.507-2.61.722-2.976.925-.289.159 1.477.031 1.652.194l3.612-.348z"/><path fill="#ED3226" d="M158.203 7.484c.188-.094.463.257.494.299.281.378.778.967.778.967 2.031-.293 9.093-.595 10.299-.688 1.444-.111-4.392-.624-7.391-.873-1.308-.109-2.244-.319-2.244-.319s-.563.078-1.116.228c-.564.151-.479-.208-.696-.406-.301-.272-.876-.236-1.034.1-.158.339.337.969.91.692z"/></svg>