<svg width="210" height="80" fill="none" xmlns="http://www.w3.org/2000/svg"><g clip-path="url(#clip0)"><path opacity=".2" d="M39.912 79.957c21.983 0 39.804-17.87 39.804-39.914S61.896.129 39.912.129C17.929.129.108 17.999.108 40.043s17.82 39.914 39.804 39.914z" fill="#242A30"/><path d="M64.79 21.806v-4.645c0-2.58-2.06-4.817-4.804-4.817-1.373 0-2.574.516-3.432 1.548-4.975-3.268-10.809-4.817-16.642-4.817-5.834 0-11.667 1.72-16.642 4.817-.858-1.032-2.23-1.548-3.432-1.548-2.573 0-4.804 2.065-4.804 4.645v4.645c-3.774 5.334-6.005 11.7-6.005 18.237 0 17.032 13.897 30.968 30.883 30.968 16.985 0 30.882-13.936 30.882-30.968 0-6.366-2.23-12.731-6.004-18.065zm-.172 30.796c0 3.785-3.088 7.054-7.034 7.054H44.887l3.775-9.462h3.603c1.373-.345 2.574-1.549 2.917-2.925v-9.463c-.343-1.72-1.888-2.924-3.775-3.096H47.29c-2.058 0-3.774 1.72-3.774 3.957h-.172V49.16h-7.377V37.806c-.343-1.72-1.888-2.924-3.775-3.096h-4.118c-2.058 0-3.774 1.72-3.774 3.957h-.171v7.741h.171c0 1.72 1.2 3.441 2.917 3.785h3.26l3.602 9.463H21.725c-3.774 0-7.034-3.097-7.034-7.054v-27.01l9.437-5.162H55.01l9.265 5.161.343 27.011z" fill="#242A30"/><path d="M24.47 20.43l-9.436 5.161v27.011c0 3.785 3.088 7.054 7.034 7.054h12.354l-3.603-9.462h-3.26c-1.716-.517-2.917-2.065-2.917-3.786h-.171v-7.741h.171c0-2.065 1.716-3.957 3.775-3.957h4.117c1.716 0 3.26 1.376 3.775 3.096v11.355h7.378V38.667h.171c0-2.065 1.716-3.957 3.774-3.957h4.118c1.716 0 3.26 1.376 3.775 3.096v9.463c-.343 1.376-1.373 2.58-2.917 2.925h-3.603l-3.775 9.462h12.697c3.774 0 7.034-3.097 7.034-7.054V25.42l-9.265-5.161H24.471v.172z" fill="#F6F6F6"/><path d="M91.04 60.344V46.41h6.862c-.171 2.064.687 4.129 2.06 5.677 1.2 1.204 2.573 1.72 4.288 1.72 1.201 0 2.402-.344 3.089-1.204.858-.86 1.201-1.892 1.201-3.097 0-1.204-.343-2.408-1.201-3.096-1.373-1.205-2.917-2.237-4.461-2.925-3.603-1.549-6.692-3.441-9.608-6.022-1.716-1.892-2.745-4.473-2.574-7.053-.171-3.097 1.03-6.194 3.26-8.258 2.059-1.893 4.804-2.925 7.549-2.925 2.917-.172 5.834 1.376 7.549 3.785V19.57h6.863v12.387h-6.863c-.171-1.72-.858-3.269-2.059-4.473a5.313 5.313 0 00-3.774-1.549 4.653 4.653 0 00-2.917 1.033 3.014 3.014 0 00-1.2 2.408c0 .86.342 1.72 1.029 2.409a18.202 18.202 0 005.662 3.097c2.402 1.032 4.632 2.236 6.862 3.613 1.544 1.032 2.917 2.58 3.775 4.3 1.029 1.893 1.372 3.958 1.372 6.022.172 3.441-1.029 6.71-3.431 9.118-2.23 2.065-5.147 3.097-8.235 3.097-3.26.172-6.348-1.204-8.236-3.957v3.441h-6.69l-.172-.172zm28.309 0v-6.71h4.803v-27.01h-4.803v-6.882h35.858v12.903h-7.893v-6.022H134.79v9.463h10.123v6.882H134.79v10.666h12.524v-6.193h7.893v12.903h-35.858zm89.902-33.892V19.57h-17.843l-7.721 23.914-7.892-23.914h-17.671v6.882h3.774v27.01h-3.774v6.71h14.926v-6.71h-3.774v-27.01l11.152 33.892h6.519l10.981-33.892h.171v27.01h-3.774v6.71h14.926v-6.71h-3.774v-27.01h3.774z" fill="#242A30"/></g><defs><clipPath id="clip0"><path fill="#fff" d="M0 0h209.315v80H0z"/></clipPath></defs></svg>