<?xml version="1.0" encoding="utf-8"?>
<!-- Generator: Adobe Illustrator 16.0.0, SVG Export Plug-In . SVG Version: 6.00 Build 0)  -->
<!DOCTYPE svg PUBLIC "-//W3C//DTD SVG 1.1//EN" "http://www.w3.org/Graphics/SVG/1.1/DTD/svg11.dtd">
<svg version="1.1" id="Layer_1" xmlns="http://www.w3.org/2000/svg" xmlns:xlink="http://www.w3.org/1999/xlink" x="0px" y="0px"
	 width="170px" height="60px" viewBox="0 0 170 60" enable-background="new 0 0 170 60" xml:space="preserve">
<g>
	<g>
		<path fill="#211D1E" d="M49.475,51.738c-6.382,0-9.81-4.625-9.81-9.641c0-5.044,3.678-9.587,10.116-9.587
			c3.094,0,4.877,0.78,6.103,1.673l-1.754,2.924c-1.005-0.722-2.314-1.336-4.434-1.336c-3.954,0-5.851,2.676-5.851,6.213
			c0,3.568,1.701,6.551,5.602,6.551c2.035,0,3.067-0.613,3.287-0.725v-3.68h-3.428v-3.037h7.192v8.861
			C55.69,50.43,53.737,51.738,49.475,51.738z"/>
		<path fill="#211D1E" d="M66.806,51.404c-0.111-0.334-0.193-1.031-0.222-1.449c-0.613,0.727-1.893,1.783-3.816,1.783
			c-2.314,0-4.099-1.393-4.099-3.816c0-3.539,3.649-4.82,7.248-4.82h0.473v-0.779c0-1.172-0.473-1.895-2.203-1.895
			c-1.754,0-2.954,0.917-3.454,1.28l-1.617-2.257c0.807-0.725,2.591-1.95,5.489-1.95c3.706,0,5.463,1.42,5.463,5.016v4.877
			c0,1.84,0.196,3.15,0.39,4.012H66.806z M66.39,45.387h-0.473c-2.175,0-3.678,0.641-3.678,2.23c0,1,0.807,1.418,1.644,1.418
			c1.338,0,2.117-0.781,2.507-1.195V45.387z"/>
		<path fill="#211D1E" d="M81.164,51.404v-8.748c0-1.367-0.472-2.065-1.813-2.065c-1.446,0-2.504,1.338-2.786,1.702v9.111h-3.707
			v-13.57h3.625v1.701c0.724-0.81,2.061-2.035,4.32-2.035c2.953,0,4.069,1.895,4.069,4.402v9.502H81.164z"/>
		<path fill="#211D1E" d="M92.987,37.5c1.669,0,2.646,0.586,3.148,0.947v-7.022h3.706v16.106c0,1.756,0.221,3.123,0.391,3.873H96.58
			c-0.111-0.334-0.252-1.059-0.277-1.475c-0.836,1-2.006,1.838-3.818,1.838c-3.399,0-5.576-2.563-5.576-7.105
			C86.908,40.314,89.503,37.5,92.987,37.5z M93.598,48.785c1.342,0,2.232-0.945,2.538-1.365v-6.131
			c-0.474-0.418-1.171-0.891-2.37-0.891c-1.895,0-2.925,1.586-2.925,4.264C90.841,47.252,91.704,48.785,93.598,48.785z"/>
		<path fill="#211D1E" d="M110.832,41.094c-0.223-0.139-0.641-0.307-1.423-0.307c-1.642,0-2.616,1.45-2.951,2.063v8.555h-3.706
			v-13.57h3.706v1.839c0.583-1.004,1.7-2.173,3.425-2.173c1.004,0,1.535,0.193,1.842,0.36L110.832,41.094z"/>
		<path fill="#211D1E" d="M116.802,51.738c-2.423,0-3.983-0.723-4.822-1.281l1.257-2.59c0.527,0.361,1.838,1.115,3.342,1.115
			c1.423,0,2.231-0.42,2.231-1.227c0-0.92-1.504-1.172-3.428-2.092c-1.895-0.891-3.04-1.949-3.04-4.014
			c0-2.534,2.008-4.15,5.072-4.15c2.313,0,3.734,0.724,4.348,1.086l-1.309,2.537c-0.53-0.336-1.591-0.866-2.897-0.866
			c-1.312,0-1.868,0.475-1.868,1.198c0,0.924,1.225,1.172,2.786,1.785c2.146,0.891,3.708,1.867,3.708,4.152
			C122.182,50.236,120.146,51.738,116.802,51.738z"/>
	</g>
	<path fill="#ED3226" d="M103.945,19.789c-1.681,0.733-4.395,1.979-5.423,2.242c-1.743,0.446-2.521-0.981-3.841-0.559
		c-0.468,0.15-1.639,1.344-3.113,2.142c-1.48,0.798-2.627,1.904-0.627,1.505c1.039-0.207,3.236-0.827,4.795-1.311
		c1.559-0.483,9.721-3.814,11.824-4.365L103.945,19.789z"/>
	<g>
		<path fill="#211D1E" d="M107.561,19.443c1.138-0.244,2.487-0.272,4.23-0.423c1.934-0.17,2.744-0.449,3.299-0.254
			c0.553,0.194,0.831,1.714,1.545,2.503c1.915,2.11,6.548,6.333,9.799,9.311c2.602,2.379,2.336,3.26,3.524,5.036
			c0.259,0.381,0.796,0.468,1.108,0.77c0.652,0.625,0.298,1.351,0.826,1.993c0.605,0.746,1.302,0.801,1.372,1.079
			c0.224,0.868-0.587,2.39-0.814,3.792c-0.229,1.404,0.494,3.574,0.882,2.801c0.394-0.775,2.688-6.945,3.002-7.328
			c0.505-0.601-0.514,4.783-0.67,7.236c-0.083,1.348,0.935,4.303,1.264,3.293c0.331-1.008,2.457-9.927,2.552-10.406
			c0.188-0.958-0.015,3.961-0.162,6.602c-0.127,2.264,1.941,4.969,2.056,3.762c0.111-1.207,0.605-9.576,0.761-10.04
			c0.192-0.58,0.549,3.987,0.817,5.685c0.265,1.697,2.019,3.256,2.021,1.668c0.005-1.109-0.367-7.49-0.316-7.822
			c0.093-0.648,0.82,1.859,1.017,2.736c0.374,1.689,2.711,3.143,2.182,0.9c-0.129-0.555-1.052-4.438-0.735-4.521
			c0.066-0.018,0.18,0.371,0.297,0.652c0.602,1.39,2.369,2.463,2.098,1.048c-0.175-0.934-1.185-4.239-1.53-5.65
			c-0.997-4.063-1.954-5.144-2.734-7.593c-1.436-4.492-1.551-6.908-2.368-7.701c-0.25-0.244-1.173-0.788-1.825-1.188
			c-0.066-0.014-6.068-2.525-7.396-6.134c-0.046-0.125-0.365-1.017-0.008-0.265c1.408,2.971,5.863,4.439,6.533,4.604
			c-0.033-0.45-0.04-1.075-0.104-1.936c-0.111-1.538-0.676-2.295-0.201-2.505c0.479-0.209,5.776-0.878,6.959-1.076
			c4.613-0.769,6.529-0.027,7.365-0.118c2.115-0.229,2.729-0.785,4.758-1.128l0.515-0.074c0,0-0.923-1.088-1-1.3
			c-0.049-0.139,1.738-0.564,1.738-0.564c-3.182-0.846-3.77-1.705-5.832-1.48c-1.947,0.212-0.911,1.019-5.235,1.873
			c-7.99,1.578-13.591-3.501-19.51-1.988c-5.563,1.421-16.685,9.012-24.368,13.379c-0.892,0.507-2.61,0.722-2.976,0.925
			c-0.289,0.159,1.477,0.031,1.652,0.194L107.561,19.443z"/>
	</g>
	<path fill="#ED3226" d="M158.203,7.484c0.188-0.094,0.463,0.257,0.494,0.299c0.281,0.378,0.778,0.967,0.778,0.967
		c2.031-0.293,9.093-0.595,10.299-0.688c1.444-0.111-4.392-0.624-7.391-0.873c-1.308-0.109-2.244-0.319-2.244-0.319
		s-0.563,0.078-1.116,0.228c-0.564,0.151-0.479-0.208-0.696-0.406c-0.301-0.272-0.876-0.236-1.034,0.1
		C157.135,7.131,157.63,7.761,158.203,7.484z"/>
</g>
</svg>
